<svg version="1.1" id="Layer_1" xmlns="http://www.w3.org/2000/svg" xmlns:xlink="http://www.w3.org/1999/xlink" x="0px" y="0px"
	 width="100%" viewBox="0 0 276 338" enable-background="new 0 0 276 338" xml:space="preserve">
<path fill="#0C141F" opacity="1.000000" stroke="none" 
	d="
M134.000000,339.000000 
	C89.333344,339.000000 45.166683,339.000000 1.000018,339.000000 
	C1.000012,226.333359 1.000012,113.666725 1.000006,1.000063 
	C92.999962,1.000042 184.999924,1.000042 276.999908,1.000021 
	C276.999939,113.666603 276.999939,226.333206 276.999969,338.999908 
	C229.500000,339.000000 182.000000,339.000000 134.000000,339.000000 
M133.410751,65.306671 
	C131.942764,65.545189 130.474777,65.783714 128.176361,65.908936 
	C126.816055,66.156570 125.455750,66.404213 123.573936,66.364929 
	C123.053177,66.590401 122.532410,66.815872 121.197868,66.956802 
	C99.070595,71.157860 79.446587,80.386726 62.308136,96.084534 
	C57.758457,101.330482 53.208775,106.576439 48.079506,112.143967 
	C44.199505,118.506187 40.319504,124.868416 35.923061,131.570862 
	C28.721773,147.030151 23.971996,166.796478 25.456379,174.472382 
	C28.322098,169.782013 30.985712,164.608261 34.399063,159.988449 
	C44.618759,146.156555 58.035072,142.518143 74.000961,148.911957 
	C77.055153,150.135056 80.012611,151.599701 83.177383,153.260880 
	C83.177383,153.260880 83.524368,153.290970 83.782402,153.873779 
	C84.540291,154.177155 85.298172,154.480545 86.525116,155.292542 
	C90.161285,157.646957 93.667397,160.239304 97.457954,162.311279 
	C108.969612,168.603729 120.153671,175.808914 132.284210,180.573975 
	C146.466019,186.144791 160.670609,183.883942 172.657288,173.771774 
	C182.072083,165.829269 187.560486,155.165421 192.028290,143.193710 
	C195.366821,136.873856 198.192123,130.208801 202.158752,124.311417 
	C208.858047,114.351250 219.026123,111.653542 229.718521,116.428841 
	C232.865707,117.834389 235.628006,120.094368 238.591125,121.923180 
	C239.740891,122.632797 240.958237,123.232887 242.144806,123.882874 
	C241.948380,121.261131 241.076569,119.612450 240.077942,118.044540 
	C231.757935,104.981567 221.426300,93.899872 207.738647,85.209625 
	C201.160355,81.801559 194.582062,78.393494 187.603485,74.401794 
	C175.910309,69.264030 163.687775,66.340012 150.054214,65.323654 
	C144.734756,65.437691 139.415298,65.551735 133.410751,65.306671 
M46.239399,218.080353 
	C43.434135,222.404587 40.381916,226.596725 37.959312,231.125641 
	C37.126175,232.683136 37.160133,235.450165 37.991856,237.040085 
	C49.526623,259.089691 66.164169,276.300598 88.558357,287.229584 
	C137.227859,310.981598 189.827789,301.871155 227.538483,263.026031 
	C244.815842,245.228928 255.137695,223.666275 258.655518,198.170441 
	C258.443329,196.575531 258.724365,194.665359 257.939056,193.436768 
	C252.780960,185.366806 245.994949,179.005295 236.737808,176.033752 
	C228.204147,173.294479 220.254913,175.141861 214.497849,182.044891 
	C210.614365,186.701370 207.738480,192.273224 204.856705,197.673004 
	C200.159973,206.473526 196.511887,215.902328 191.195770,224.289185 
	C180.527451,241.119858 163.531219,247.809464 144.485519,241.916458 
	C134.298065,238.764282 124.778465,233.197006 115.296432,228.090271 
	C104.754768,222.412842 94.935913,215.325226 84.192627,210.106873 
	C69.596390,203.017044 58.148808,205.870422 46.239399,218.080353 
z"/>
<path fill="#FDFDFD" opacity="1.000000" stroke="none" 
	d="
M46.846569,217.766205 
	C58.148808,205.870422 69.596390,203.017044 84.192627,210.106873 
	C94.935913,215.325226 104.754768,222.412842 115.296432,228.090271 
	C124.778465,233.197006 134.298065,238.764282 144.485519,241.916458 
	C163.531219,247.809464 180.527451,241.119858 191.195770,224.289185 
	C196.511887,215.902328 200.159973,206.473526 204.856705,197.673004 
	C207.738480,192.273224 210.614365,186.701370 214.497849,182.044891 
	C220.254913,175.141861 228.204147,173.294479 236.737808,176.033752 
	C245.994949,179.005295 252.780960,185.366806 257.939056,193.436768 
	C258.724365,194.665359 258.443329,196.575531 258.183289,198.661804 
	C256.111053,199.594940 254.534073,200.237259 252.904816,200.424393 
	C251.127167,200.628601 249.183563,199.987686 247.516312,200.450317 
	C240.081360,202.513443 234.316956,207.114563 231.121323,214.013214 
	C227.643188,221.521713 224.424576,229.284012 222.299728,237.257294 
	C218.192688,252.668457 210.818878,265.718719 198.540390,276.082672 
	C182.652908,289.492859 164.086349,294.787872 144.089981,291.518677 
	C120.643066,287.685364 102.762291,274.792023 92.341995,252.759659 
	C89.709335,247.193237 87.396706,241.454163 84.441650,236.066101 
	C79.007195,226.157227 71.026009,219.699020 59.247231,218.915588 
	C55.106510,218.640167 50.979717,218.155380 46.846569,217.766205 
z"/>
<path fill="#FDFDFD" opacity="1.000000" stroke="none" 
	d="
M191.493286,143.656998 
	C187.560486,155.165421 182.072083,165.829269 172.657288,173.771774 
	C160.670609,183.883942 146.466019,186.144791 132.284210,180.573975 
	C120.153671,175.808914 108.969612,168.603729 97.457954,162.311279 
	C93.667397,160.239304 90.161285,157.646957 86.227692,154.693787 
	C85.128304,153.827026 84.326340,153.559006 83.524368,153.290970 
	C83.524368,153.290970 83.177383,153.260880 83.093628,152.761002 
	C78.478615,148.195724 74.186646,143.817337 69.365433,140.131180 
	C59.832325,132.842453 50.188225,125.273674 36.932163,131.170624 
	C36.787647,131.234909 36.604576,131.212540 36.439503,131.230637 
	C40.319504,124.868416 44.199505,118.506187 48.828224,112.055954 
	C62.738533,111.931633 73.965401,117.272369 84.800926,124.152199 
	C96.106674,131.330582 106.838867,139.840302 120.519875,142.305038 
	C138.931396,145.621979 156.288086,138.940323 160.111801,118.267929 
	C161.795395,109.165810 162.957565,99.957619 164.913300,90.918060 
	C167.040375,81.086479 173.473862,76.213577 183.308456,75.921959 
	C184.881424,75.875328 186.439056,75.310638 188.003769,74.985428 
	C194.582062,78.393494 201.160355,81.801559 207.828522,85.871689 
	C206.968826,87.020050 206.053177,87.839439 205.064331,87.940170 
	C196.846512,88.777222 193.343872,92.338982 193.036118,100.525475 
	C192.495728,114.901665 192.004883,129.279724 191.493286,143.656998 
z"/>
<path fill="#D6D6D5" opacity="1.000000" stroke="none" 
	d="
M46.542984,217.923279 
	C50.979717,218.155380 55.106510,218.640167 59.247231,218.915588 
	C71.026009,219.699020 79.007195,226.157227 84.441650,236.066101 
	C87.396706,241.454163 89.709335,247.193237 92.341995,252.759659 
	C102.762291,274.792023 120.643066,287.685364 144.089981,291.518677 
	C164.086349,294.787872 182.652908,289.492859 198.540390,276.082672 
	C210.818878,265.718719 218.192688,252.668457 222.299728,237.257294 
	C224.424576,229.284012 227.643188,221.521713 231.121323,214.013214 
	C234.316956,207.114563 240.081360,202.513443 247.516312,200.450317 
	C249.183563,199.987686 251.127167,200.628601 252.904816,200.424393 
	C254.534073,200.237259 256.111053,199.594940 258.013123,199.021057 
	C255.137695,223.666275 244.815842,245.228928 227.538483,263.026031 
	C189.827789,301.871155 137.227859,310.981598 88.558357,287.229584 
	C66.164169,276.300598 49.526623,259.089691 37.991856,237.040085 
	C37.160133,235.450165 37.126175,232.683136 37.959312,231.125641 
	C40.381916,226.596725 43.434135,222.404587 46.542984,217.923279 
z"/>
<path fill="#D8D8D7" opacity="1.000000" stroke="none" 
	d="
M187.803619,74.693619 
	C186.439056,75.310638 184.881424,75.875328 183.308456,75.921959 
	C173.473862,76.213577 167.040375,81.086479 164.913300,90.918060 
	C162.957565,99.957619 161.795395,109.165810 160.111801,118.267929 
	C156.288086,138.940323 138.931396,145.621979 120.519875,142.305038 
	C106.838867,139.840302 96.106674,131.330582 84.800926,124.152199 
	C73.965401,117.272369 62.738533,111.931633 49.118019,111.895157 
	C53.208775,106.576439 57.758457,101.330482 62.770538,96.394897 
	C64.222282,97.121498 65.176216,97.690750 66.206703,97.929298 
	C73.232635,99.555794 80.313278,100.961311 87.298897,102.741669 
	C92.565399,104.083900 97.641899,106.213005 102.936104,107.396088 
	C112.278023,109.483711 122.463463,104.371956 126.329292,95.037758 
	C129.001297,88.586128 132.394424,82.010399 137.037796,76.926270 
	C141.048737,72.534576 147.277740,70.168633 151.832123,67.338486 
	C151.831543,67.337357 151.383240,66.485542 150.934952,65.633728 
	C163.687775,66.340012 175.910309,69.264030 187.803619,74.693619 
z"/>
<path fill="#FDFDFD" opacity="1.000000" stroke="none" 
	d="
M150.494583,65.478691 
	C151.383240,66.485542 151.831543,67.337357 151.832123,67.338486 
	C147.277740,70.168633 141.048737,72.534576 137.037796,76.926270 
	C132.394424,82.010399 129.001297,88.586128 126.329292,95.037758 
	C122.463463,104.371956 112.278023,109.483711 102.936104,107.396088 
	C97.641899,106.213005 92.565399,104.083900 87.298897,102.741669 
	C80.313278,100.961311 73.232635,99.555794 66.206703,97.929298 
	C65.176216,97.690750 64.222282,97.121498 63.103539,96.325378 
	C79.446587,80.386726 99.070595,71.157860 121.725555,67.217827 
	C122.867317,67.203186 123.481377,66.927513 124.095444,66.651848 
	C125.455750,66.404213 126.816055,66.156570 128.805939,66.222931 
	C130.988968,66.246544 132.542404,65.956154 134.095840,65.665771 
	C139.415298,65.551735 144.734756,65.437691 150.494583,65.478691 
z"/>
<path fill="#D4D4D3" opacity="1.000000" stroke="none" 
	d="
M191.760788,143.425354 
	C192.004883,129.279724 192.495728,114.901665 193.036118,100.525475 
	C193.343872,92.338982 196.846512,88.777222 205.064331,87.940170 
	C206.053177,87.839439 206.968826,87.020050 208.030930,86.136566 
	C221.426300,93.899872 231.757935,104.981567 240.077942,118.044540 
	C241.076569,119.612450 241.948380,121.261131 242.144806,123.882874 
	C240.958237,123.232887 239.740891,122.632797 238.591125,121.923180 
	C235.628006,120.094368 232.865707,117.834389 229.718521,116.428841 
	C219.026123,111.653542 208.858047,114.351250 202.158752,124.311417 
	C198.192123,130.208801 195.366821,136.873856 191.760788,143.425354 
z"/>
<path fill="#D2D2D1" opacity="1.000000" stroke="none" 
	d="
M36.181282,131.400757 
	C36.604576,131.212540 36.787647,131.234909 36.932163,131.170624 
	C50.188225,125.273674 59.832325,132.842453 69.365433,140.131180 
	C74.186646,143.817337 78.478615,148.195724 83.012283,152.607025 
	C80.012611,151.599701 77.055153,150.135056 74.000961,148.911957 
	C58.035072,142.518143 44.618759,146.156555 34.399063,159.988449 
	C30.985712,164.608261 28.322098,169.782013 25.456379,174.472382 
	C23.971996,166.796478 28.721773,147.030151 36.181282,131.400757 
z"/>
<path fill="#D8D8D7" opacity="1.000000" stroke="none" 
	d="
M133.753296,65.486221 
	C132.542404,65.956154 130.988968,66.246544 129.221161,66.279587 
	C130.474777,65.783714 131.942764,65.545189 133.753296,65.486221 
z"/>
<path fill="#D8D8D7" opacity="1.000000" stroke="none" 
	d="
M123.834686,66.508392 
	C123.481377,66.927513 122.867317,67.203186 122.132446,67.260101 
	C122.532410,66.815872 123.053177,66.590401 123.834686,66.508392 
z"/>
<path fill="#D2D2D1" opacity="1.000000" stroke="none" 
	d="
M83.653381,153.582367 
	C84.326340,153.559006 85.128304,153.827026 85.993164,154.439484 
	C85.298172,154.480545 84.540291,154.177155 83.653381,153.582367 
z"/>
</svg>